<?xml version="1.0" standalone="no"?>
<!DOCTYPE svg PUBLIC "-//W3C//DTD SVG 20010904//EN"
 "http://www.w3.org/TR/2001/REC-SVG-20010904/DTD/svg10.dtd">
<svg version="1.0" xmlns="http://www.w3.org/2000/svg"
 width="313.000000pt" height="309.000000pt" viewBox="0 0 313.000000 309.000000"
 preserveAspectRatio="xMidYMid meet">
<metadata>
Created by potrace 1.16, written by Peter Selinger 2001-2019
</metadata>
<g transform="translate(0.000000,309.000000) scale(0.100000,-0.100000)"
fill="#000000" stroke="none">
<path d="M1365 3075 c-121 -21 -350 -89 -453 -134 -185 -80 -339 -188 -489
-344 -199 -207 -330 -454 -396 -745 -18 -83 -22 -128 -22 -312 0 -189 3 -227
23 -319 138 -616 606 -1073 1227 -1198 137 -27 444 -25 581 5 323 70 597 223
844 472 177 178 292 364 369 595 60 178 75 279 75 485 0 142 -4 196 -22 287
-62 312 -192 555 -416 779 -212 211 -447 343 -736 411 -89 21 -135 25 -305 29
-143 2 -223 -1 -280 -11z m540 -45 c318 -65 564 -204 801 -453 456 -477 532
-1216 184 -1792 -28 -47 -53 -85 -55 -85 -1 0 23 51 55 113 69 133 112 250
142 390 19 87 22 133 22 307 0 174 -3 220 -22 306 -30 139 -84 290 -143 404
-50 95 -178 284 -187 276 -2 -3 18 -35 46 -72 210 -281 316 -654 284 -1002
-34 -376 -186 -692 -458 -952 -116 -111 -206 -177 -324 -239 -310 -162 -655
-200 -1007 -111 -495 125 -898 501 -1052 984 -177 552 -19 1166 396 1537 512
458 1297 499 1846 96 37 -27 70 -47 73 -44 9 9 -190 152 -273 195 -114 59
-251 110 -368 137 -123 29 -93 32 40 5z m-1794 -1224 c-46 -248 -6 -575 99
-823 86 -201 193 -355 353 -509 193 -186 403 -301 682 -375 72 -19 93 -28 60
-24 -116 14 -286 70 -430 142 -258 130 -510 385 -645 652 -115 229 -173 527
-150 767 11 119 30 237 37 231 2 -3 0 -30 -6 -61z"/>
<path d="M1424 2198 c-65 -73 -119 -134 -120 -136 -1 -2 -16 4 -33 12 -16 9
-33 16 -36 16 -4 0 -22 -33 -40 -74 -26 -55 -47 -84 -85 -116 -27 -23 -50 -46
-50 -51 0 -5 38 -9 85 -9 47 0 85 3 85 7 0 4 -10 17 -22 30 -12 13 -17 23 -11
23 12 0 36 54 38 84 1 12 2 36 3 53 l2 33 71 -47 c61 -39 73 -43 80 -30 5 8
38 25 74 37 36 12 65 25 65 29 0 3 -15 29 -33 56 l-34 49 41 68 c23 37 44 67
47 66 4 -2 52 -56 108 -121 77 -90 101 -124 101 -146 0 -16 9 -39 21 -52 18
-21 20 -21 14 -4 -15 42 -16 52 -7 105 l8 55 49 -102 c44 -95 50 -103 76 -103
15 0 31 5 34 10 11 18 20 11 54 -45 18 -30 38 -55 43 -55 14 0 3 26 -40 92
-36 56 -39 58 -80 58 l-43 0 -41 88 c-22 48 -41 88 -42 90 -2 1 -21 -4 -44
-12 l-41 -15 -82 95 c-45 52 -85 94 -89 94 -5 0 -61 -60 -126 -132z"/>
<path d="M560 1611 c0 -42 10 -51 61 -51 l28 0 3 -137 3 -138 52 -3 52 -3 3
138 3 138 35 3 c47 5 62 19 58 56 l-3 31 -147 3 -148 3 0 -40z"/>
<path d="M904 1637 c-2 -7 -3 -89 -2 -182 l3 -170 53 -3 52 -3 0 49 c0 30 5
54 14 61 16 13 18 11 46 -44 20 -39 75 -75 115 -75 27 0 34 5 39 26 10 39 -2
63 -40 79 -41 17 -44 40 -10 73 63 59 38 159 -47 191 -42 16 -216 14 -223 -2z"/>
<path d="M1355 1640 c-10 -17 -115 -333 -115 -347 0 -9 17 -13 54 -13 51 0 55
2 65 30 9 28 13 30 65 30 52 0 57 -2 71 -30 14 -27 20 -30 65 -30 41 0 50 3
50 17 0 10 -25 93 -56 185 l-56 168 -68 0 c-38 0 -72 -5 -75 -10z"/>
<path d="M1600 1633 c1 -10 24 -92 53 -183 l53 -165 69 0 70 0 57 175 c32 96
54 178 49 183 -4 4 -30 7 -57 5 l-49 -3 -30 -112 c-16 -62 -33 -115 -36 -118
-6 -5 -18 33 -59 193 l-11 42 -54 0 c-46 0 -55 -3 -55 -17z"/>
<path d="M2000 1465 l0 -185 131 0 130 0 -3 43 -3 42 -70 5 c-56 4 -70 8 -73
23 -3 13 3 17 25 17 60 0 73 9 73 50 0 42 -11 50 -66 50 -30 0 -34 3 -34 25 0
24 3 25 59 25 82 0 91 5 91 51 l0 39 -130 0 -130 0 0 -185z"/>
<path d="M2312 1468 l3 -183 123 -3 123 -3 -3 43 -3 43 -65 5 -65 5 -3 138 -3
137 -55 0 -54 0 2 -182z"/>
<path d="M568 1164 c-5 -4 -8 -92 -8 -195 l0 -189 26 -6 c44 -11 182 4 230 25
78 35 93 115 31 167 -26 22 -29 29 -19 45 17 27 15 95 -4 113 -8 9 -25 21 -37
28 -25 13 -208 24 -219 12z"/>
<path d="M1033 1158 c-6 -7 -37 -93 -69 -191 -65 -197 -65 -197 9 -197 33 0
40 5 58 35 20 33 24 35 75 35 50 0 55 -2 65 -27 13 -35 26 -43 70 -43 64 0 64
9 -1 205 -32 98 -65 182 -72 186 -21 14 -124 11 -135 -3z"/>
<path d="M1353 1159 c-18 -18 -18 -360 -1 -377 16 -16 83 -15 96 1 6 7 12 35
14 61 2 27 8 51 15 53 7 3 21 -13 32 -35 32 -62 76 -94 125 -90 l41 3 0 44 c0
41 -2 44 -35 55 -46 15 -49 38 -11 82 55 62 37 155 -36 189 -49 24 -222 33
-240 14z"/>
<path d="M1732 1158 c-17 -17 -17 -359 0 -376 7 -7 28 -12 48 -12 20 0 41 5
48 12 8 8 12 64 12 188 0 124 -4 180 -12 188 -16 16 -80 16 -96 0z"/>
<path d="M1917 1163 c-4 -3 -7 -91 -7 -194 0 -161 2 -188 16 -193 20 -8 208
-8 228 0 11 4 16 19 16 45 0 43 -6 47 -95 51 l-50 3 -3 140 c-2 96 -6 142 -15
147 -15 9 -81 10 -90 1z"/>
<path d="M2295 1161 c-29 -13 -62 -47 -82 -84 -26 -48 -24 -170 3 -222 32 -62
83 -86 171 -83 85 4 117 22 151 89 20 37 23 56 20 126 -2 63 -8 88 -24 109
-40 54 -70 68 -147 71 -40 2 -81 -1 -92 -6z m100 -77 c60 -23 59 -205 -1 -228
-27 -10 -62 20 -74 65 -14 51 -5 110 22 144 21 26 27 29 53 19z"/>
</g>
</svg>
